<svg xmlns="http://www.w3.org/2000/svg" width="400" height="600" viewBox="0 0 400 600"><rect width="100%" height="100%" fill="#8b5cf6"/><path fill="#ffffff" d="M89.45 302.77q.27 0 .49.21l1.32 1.44q-1.1 1.36-2.7 2.08-1.61.73-3.86.73-2.01 0-3.62-.69t-2.74-1.91q-1.14-1.23-1.75-2.93-.6-1.7-.6-3.71 0-2.04.65-3.73t1.83-2.92q1.18-1.22 2.82-1.9 1.63-.69 3.62-.69 1.98 0 3.51.65t2.6 1.7l-1.12 1.57q-.1.15-.26.26-.15.11-.43.11-.19 0-.39-.1-.2-.11-.43-.27-.24-.15-.55-.34-.32-.19-.73-.34-.41-.16-.95-.27-.55-.1-1.26-.1-1.21 0-2.22.43t-1.73 1.25q-.73.82-1.13 2t-.4 2.69q0 1.53.44 2.71.43 1.19 1.16 2 .74.82 1.74 1.25t2.15.43q.69 0 1.25-.08.55-.07 1.02-.23.47-.17.89-.42.42-.26.83-.63.12-.12.26-.18.14-.07.29-.07m3.67-14.31h3.09v18.57h-3.09zm12.95 15.26v-2.17q-1.33.07-2.25.24-.91.16-1.46.43-.55.26-.79.61-.23.35-.23.76 0 .81.48 1.17.48.34 1.25.34.95 0 1.65-.34.69-.34 1.35-1.04m-6.52-6.74-.55-.99q2.21-2.02 5.32-2.02 1.13 0 2.02.37.88.36 1.5 1.02.61.66.93 1.57t.32 2v8.1h-1.4q-.44 0-.68-.13t-.37-.53l-.28-.93q-.49.44-.95.77t-.96.56q-.5.22-1.07.34t-1.26.12q-.81 0-1.5-.22-.68-.22-1.18-.66-.5-.43-.78-1.08-.27-.65-.27-1.52 0-.48.16-.96.16-.49.53-.92.37-.44.96-.83.58-.39 1.44-.67.86-.29 1.99-.47 1.14-.18 2.6-.22v-.75q0-1.29-.55-1.91t-1.58-.62q-.75 0-1.25.18-.49.17-.87.39-.37.22-.68.4-.3.17-.68.17-.32 0-.55-.17-.22-.17-.36-.39m20.96-1.39-.7 1.11q-.12.2-.26.29-.14.08-.35.08-.23 0-.48-.13-.26-.12-.6-.28-.33-.16-.76-.28-.44-.13-1.02-.13-.92 0-1.43.39-.52.39-.52 1.01 0 .42.27.7.26.28.71.49.44.21 1 .38.57.17 1.15.37t1.14.46q.56.25 1.01.65.44.39.71.94t.27 1.33q0 .92-.33 1.7t-.98 1.35-1.61.89-2.21.32q-.66 0-1.29-.12t-1.21-.33-1.08-.5q-.49-.29-.87-.63l.72-1.17q.13-.21.32-.33.19-.11.48-.11.28 0 .54.16.26.17.59.35.34.19.8.35.45.17 1.15.17.55 0 .95-.13.39-.14.65-.35.25-.21.37-.49t.12-.58q0-.45-.27-.74t-.71-.5-1.01-.38-1.16-.37q-.6-.2-1.17-.47t-1.01-.68-.71-1.01-.27-1.45q0-.79.31-1.5.31-.72.92-1.25t1.51-.85q.91-.32 2.1-.32 1.32 0 2.41.44t1.81 1.15m10.99 0-.7 1.11q-.13.2-.26.29-.14.08-.35.08-.23 0-.48-.13-.26-.12-.6-.28t-.77-.28q-.43-.13-1.02-.13-.91 0-1.43.39t-.52 1.01q0 .42.27.7t.72.49q.44.21 1 .38t1.15.37q.58.2 1.14.46.56.25 1.01.65.44.39.71.94t.27 1.33q0 .92-.33 1.7-.34.78-.99 1.35t-1.6.89q-.96.32-2.21.32-.66 0-1.29-.12t-1.21-.33q-.59-.21-1.08-.5t-.87-.63l.71-1.17q.14-.21.33-.33.19-.11.47-.11.29 0 .55.16.25.17.59.35.34.19.8.35.45.17 1.15.17.55 0 .95-.13.39-.14.65-.35.25-.21.37-.49t.12-.58q0-.45-.27-.74t-.71-.5q-.45-.21-1.01-.38-.57-.17-1.17-.37-.59-.2-1.16-.47t-1.01-.68q-.45-.41-.71-1.01-.27-.6-.27-1.45 0-.79.31-1.5.31-.72.92-1.25.6-.53 1.51-.85t2.09-.32q1.33 0 2.42.44 1.08.44 1.81 1.15m2.56-1.39h3.1v12.83h-3.1zm3.53-3.73q0 .4-.17.75-.16.35-.43.61t-.63.42q-.36.15-.77.15-.4 0-.76-.15-.36-.16-.62-.42t-.42-.61q-.15-.35-.15-.75 0-.42.15-.78.16-.36.42-.62.26-.27.62-.42.36-.16.76-.16.41 0 .77.16.36.15.63.42.27.26.43.62.17.36.17.78m12.72 5.32-.81 1.13q-.14.17-.27.27t-.38.1q-.24 0-.46-.14-.23-.15-.54-.33t-.74-.32q-.44-.15-1.07-.15-.82 0-1.43.3-.61.29-1.02.84-.4.55-.6 1.33t-.2 1.77q0 1.03.22 1.83.21.8.63 1.34.41.54 1 .83.58.28 1.32.28t1.2-.18q.45-.19.76-.4.32-.22.55-.4.23-.19.52-.19.37 0 .56.29l.89 1.13q-.52.6-1.12 1-.6.41-1.24.65-.64.25-1.32.35-.69.1-1.36.1-1.19 0-2.24-.45-1.05-.44-1.84-1.29-.78-.85-1.24-2.08t-.46-2.81q0-1.41.41-2.62.41-1.2 1.19-2.08.79-.89 1.95-1.39 1.17-.5 2.68-.5 1.44 0 2.52.47 1.08.46 1.94 1.32m20.01-4.16h-8.02v5.01h6.32v2.59h-6.32v5.11h8.02v2.69h-11.4v-18.07h11.4zm5.17 3.14.21 1.01q.39-.39.82-.72t.91-.56 1.03-.36q.55-.14 1.2-.14 1.05 0 1.86.36.82.36 1.36 1t.83 1.54q.28.89.28 1.97v8.16h-3.09v-8.16q0-1.18-.54-1.82-.54-.65-1.64-.65-.8 0-1.5.37-.7.36-1.32.98v9.28h-3.09V294.2h1.89q.6 0 .79.57m16.11 5.53q.57 0 1-.15.42-.16.71-.43.28-.28.42-.67.14-.38.14-.85 0-.95-.56-1.5-.57-.56-1.71-.56t-1.71.56q-.57.55-.57 1.5 0 .45.15.84.14.39.42.67t.72.44q.43.15.99.15m3.49 7.31q0-.38-.23-.62-.22-.24-.61-.37t-.91-.19-1.1-.09q-.58-.04-1.2-.06-.62-.03-1.2-.1-.52.29-.83.67-.32.39-.32.91 0 .33.17.63.16.29.53.5.37.22.96.33.59.12 1.44.12.86 0 1.48-.13.63-.13 1.04-.36.4-.23.59-.55t.19-.69m-.62-12.97h3.69v1.15q0 .55-.66.68l-1.15.21q.26.66.26 1.45 0 .95-.38 1.72t-1.06 1.3q-.67.54-1.59.84-.92.29-1.98.29-.38 0-.73-.04t-.68-.1q-.6.36-.6.81 0 .39.35.57.36.18.95.26.58.07 1.33.09t1.54.08q.79.07 1.54.22.75.16 1.34.5.58.34.94.92t.36 1.49q0 .85-.42 1.65t-1.21 1.43q-.8.62-1.95 1-1.16.38-2.64.38-1.45 0-2.52-.28-1.08-.28-1.79-.75t-1.06-1.08-.35-1.27q0-.9.54-1.51.55-.61 1.5-.97-.52-.26-.82-.7t-.3-1.15q0-.29.11-.59.11-.31.31-.61.21-.3.52-.57t.74-.48q-.98-.53-1.53-1.4-.56-.88-.56-2.05 0-.95.38-1.72t1.07-1.31q.68-.55 1.61-.83.93-.29 2.03-.29.82 0 1.55.17.72.17 1.32.49m5.68-6.18h3.09v18.57h-3.09zm6.27 5.74h3.1v12.83h-3.1zm3.53-3.73q0 .4-.16.75-.17.35-.43.61-.27.26-.64.42-.36.15-.77.15-.4 0-.76-.15-.35-.16-.62-.42-.26-.26-.41-.61-.16-.35-.16-.75 0-.42.16-.78.15-.36.41-.62.27-.27.62-.42.36-.16.76-.16.41 0 .77.16.37.15.64.42.26.26.43.62.16.36.16.78m11.25 5.12-.7 1.11q-.13.2-.26.29-.14.08-.35.08-.23 0-.48-.13-.26-.12-.6-.28t-.77-.28q-.43-.13-1.02-.13-.91 0-1.43.39t-.52 1.01q0 .42.27.7t.72.49q.44.21 1 .38t1.15.37q.58.2 1.14.46.56.25 1.01.65.44.39.71.94t.27 1.33q0 .92-.33 1.7-.34.78-.99 1.35t-1.6.89q-.96.32-2.21.32-.66 0-1.29-.12t-1.21-.33q-.59-.21-1.08-.5t-.87-.63l.71-1.17q.14-.21.33-.33.19-.11.47-.11.29 0 .55.16.25.17.59.35.34.19.8.35.45.17 1.15.17.55 0 .95-.13.39-.14.65-.35.25-.21.37-.49t.12-.58q0-.45-.27-.74t-.71-.5q-.45-.21-1.01-.38-.57-.17-1.17-.37-.59-.2-1.16-.47t-1.01-.68q-.45-.41-.71-1.01-.27-.6-.27-1.45 0-.79.31-1.5.31-.72.92-1.25.6-.53 1.51-.85t2.09-.32q1.33 0 2.42.44 1.08.44 1.81 1.15m5.55-7.13v7.12q.75-.7 1.65-1.14t2.11-.44q1.05 0 1.86.36.82.36 1.36 1t.83 1.54q.28.89.28 1.97v8.16h-3.09v-8.16q0-1.18-.54-1.82-.54-.65-1.64-.65-.8 0-1.5.37-.7.36-1.32.98v9.28h-3.09v-18.57zm30.2.5v2.76h-5.45v15.31h-3.36v-15.31h-5.45v-2.76zm8.66 14.76v-2.17q-1.34.07-2.25.24-.91.16-1.46.43-.55.26-.79.61t-.24.76q0 .81.49 1.17.48.34 1.25.34.95 0 1.65-.34.69-.34 1.35-1.04m-6.52-6.74-.55-.99q2.21-2.02 5.32-2.02 1.13 0 2.01.37.89.36 1.5 1.02.62.66.94 1.57.31.91.31 2v8.1h-1.4q-.43 0-.67-.13t-.38-.53l-.27-.93q-.49.44-.95.77t-.96.56q-.5.22-1.07.34t-1.26.12q-.81 0-1.5-.22t-1.19-.66q-.5-.43-.77-1.08-.28-.65-.28-1.52 0-.48.17-.96.16-.49.53-.92.37-.44.95-.83.59-.39 1.45-.67.85-.29 1.99-.47t2.6-.22v-.75q0-1.29-.55-1.91t-1.59-.62q-.75 0-1.24.18-.49.17-.87.39-.37.22-.68.4-.31.17-.68.17-.33 0-.55-.17-.23-.17-.36-.39m12.47-8.52h3.09v18.57h-3.09zm8.61 10.68H286q0-.6-.17-1.13t-.51-.93q-.33-.4-.85-.63t-1.21-.23q-1.34 0-2.1.76-.77.76-.99 2.16m7.88 1.86h-7.94q.08.99.35 1.71.28.72.73 1.19t1.07.7q.61.23 1.36.23t1.3-.18q.54-.17.95-.38l.71-.39q.31-.18.59-.18.39 0 .58.29l.89 1.13q-.52.6-1.15 1-.64.41-1.33.65-.7.25-1.42.35t-1.39.1q-1.34 0-2.49-.45-1.15-.44-2-1.31t-1.34-2.15q-.48-1.28-.48-2.97 0-1.31.42-2.47.43-1.15 1.22-2.01t1.94-1.36q1.14-.5 2.58-.5 1.21 0 2.24.39 1.02.39 1.76 1.13.74.75 1.16 1.83.41 1.08.41 2.47 0 .7-.15.94t-.57.24m17.27 3.72h3.25v2.31h-10v-2.31h3.67v-10.54q0-.63.03-1.29l-2.6 2.18q-.22.17-.44.22-.22.04-.41 0-.2-.04-.35-.13t-.22-.21l-.98-1.33 5.52-4.69h2.53zm18.69-6.73q0 2.36-.5 4.11-.51 1.74-1.4 2.88-.9 1.14-2.12 1.69-1.22.56-2.63.56t-2.62-.56q-1.2-.55-2.09-1.69t-1.39-2.88q-.5-1.75-.5-4.11 0-2.37.5-4.11t1.39-2.88q.89-1.13 2.09-1.69 1.21-.56 2.62-.56t2.63.56 2.12 1.69q.89 1.14 1.4 2.88.5 1.74.5 4.11m-3.19 0q0-1.96-.28-3.25-.29-1.29-.77-2.05t-1.11-1.07q-.62-.3-1.3-.3-.66 0-1.28.3-.62.31-1.09 1.07-.48.76-.76 2.05t-.28 3.25.28 3.25.76 2.05q.47.76 1.09 1.07t1.28.31q.68 0 1.3-.31.63-.31 1.11-1.07t.77-2.05q.28-1.29.28-3.25"/></svg>